<?xml version="1.0" encoding="iso-8859-1"?>
<!-- Generator: Adobe Illustrator 19.0.0, SVG Export Plug-In . SVG Version: 6.00 Build 0)  -->
<svg version="1.1" id="Capa_1" xmlns="http://www.w3.org/2000/svg" xmlns:xlink="http://www.w3.org/1999/xlink" x="0px" y="0px"
	 viewBox="0 0 383.998 383.998" style="enable-background:new 0 0 383.998 383.998;" xml:space="preserve">
<g>
	<g>
		<path d="M379.3,223.878L160.131,4.686c-6.248-6.248-16.376-6.248-22.624,0L99.636,42.534c-6.248,6.248-6.248,16.376-0.008,22.624
			c9.504,9.512,9.504,24.992,0.024,34.496c-4.6,4.6-10.72,7.136-17.224,7.136H82.42c-6.512,0-12.64-2.544-17.24-7.16
			c-6.016-6-16.624-6-22.64,0L4.691,137.502c-6.24,6.248-6.24,16.376,0.008,22.624l77.088,77.088
			c0.008,0.008,0.016,0.024,0.032,0.032c0.016,0.008,0.024,0.016,0.032,0.032L223.876,379.31c3.112,3.128,7.208,4.688,11.296,4.688
			c4.088,0,8.184-1.56,11.312-4.68l37.872-37.848c3-3,4.688-7.072,4.688-11.32c0-4.24-1.688-8.312-4.688-11.32
			c-9.504-9.504-9.512-24.976-0.016-34.48c9.504-9.504,24.984-9.496,34.496,0.008c6,6.008,16.624,6,22.624,0l37.84-37.856
			C385.548,240.254,385.548,230.126,379.3,223.878z M328.516,252.054c-21.368-11.592-48.736-8.384-66.808,9.672
			c-18.04,18.056-21.256,45.408-9.656,66.784l-16.88,16.864l-119.44-119.44l11.088-11.096c6.24-6.248,6.24-16.376-0.008-22.624
			s-16.384-6.248-22.632,0.008l-11.072,11.08l-54.488-54.488l16.84-16.856c8.168,4.456,17.368,6.832,26.928,6.832
			c0.008,0,0.016,0,0.024,0c15.056,0,29.208-5.864,39.856-16.52c18.024-18.056,21.24-45.4,9.656-66.776l16.872-16.864l54.496,54.496
			l-11.08,11.08c-6.248,6.248-6.248,16.376,0,22.632c3.128,3.12,7.216,4.68,11.312,4.68s8.184-1.56,11.312-4.688l11.08-11.08
			l119.456,119.448L328.516,252.054z"/>
	</g>
</g>
<g>
	<g>
		<path d="M182.052,137.006c-6.248-6.24-16.392-6.24-22.624,0.008l-22.4,22.408c-6.248,6.248-6.248,16.384,0,22.632
			c3.128,3.12,7.216,4.68,11.312,4.68c4.096,0,8.192-1.56,11.312-4.688l22.4-22.408C188.3,153.39,188.3,143.254,182.052,137.006z"/>
	</g>
</g>
<g>
</g>
<g>
</g>
<g>
</g>
<g>
</g>
<g>
</g>
<g>
</g>
<g>
</g>
<g>
</g>
<g>
</g>
<g>
</g>
<g>
</g>
<g>
</g>
<g>
</g>
<g>
</g>
<g>
</g>
</svg>
